<svg xmlns="http://www.w3.org/2000/svg" width="280.8" height="360.7" viewBox="0 0 280.8 360.7"><g fill="#FFF" fill-rule="evenodd" clip-rule="evenodd"><path d="M154.4 141.7c24.8-8.1 37.9.8 57.9 11.5 12.3 6.6 20.2 9.2 34.8 9.7 2.6.1 1.3-.1 3.9.5-2 1.1-1.4 1-3.6 1.5-11.6 2.9-24.1.1-34.7-4.1-19.1-7.5-31.8-18-53.5-9.6-3.1 1.1-6.7-.1-8-2.7-1.3-2.6.1-5.6 3.2-6.8z"/><path d="M160 124.7c20.8-3.7 33.5-.5 51.7 8 8.1 3.8 11.5 5.1 21 4.7 11.9-.6 15.4-4.7 22.5-11.6 6.4-6.3 13.3-8.9 22.9-5.8 1.6.5 1.2.4 2.6 1.3-2 .3-1.1.3-3 .2-10.6-.3-13.4 1.1-19.2 8.4-6.9 8.5-12.4 13.1-25.1 14.4-11.1 1.2-16.3-.2-26.1-4.2-16.3-6.6-26.6-9.1-44.6-5.2-3.3.7-6.5-1.1-7.3-3.9-.3-1.3 4.8-.8 5.4-1.9.8-1.3-2.6-4.1-.8-4.4z"/><path d="M167.7 112.7c13.7-6.9 20.4-3.6 34.4.6 10 3 21.2 6.3 31.8 3.5 7.8-2 13.8-10.4 11.6-17-.9-2.6-2.2-2.9-4.2-4.6l1.2-.3c3.2-.2 6.1 3.3 6.9 5.7 3.1 8.6-3.6 18.7-13.1 22-12.9 4.6-26.5 1.4-39.3-1.6-9.7-2.2-17.2-3.9-25.9 1.1-2.8 1.6-6.6 1-8.4-1.4-1.8-2.3 2.2-6.4 5-8z"/><path d="M178.9 97.7c23.4-.6 29.5-20.4 50.3-23.1 15-1 32.3 6.6 37.7 19.3.6 1.5 1.4 4.3 1.3 5.8l-.4 1.5c-1.2-2-.5-.6-1.4-2.7-3.9-8.6-12.2-14.5-22.3-17.1-11-2.9-18.1-1.3-26.5 5.1-12.9 9.9-19.3 18.5-38.4 19.7-2.8.1-5-1.8-5.1-4.2s2.1-4.2 4.8-4.3z"/><path d="M182.1 91.7c5.3-3.5 12.7-8.5 12-14.9-.5-4.8-3.6-9.1-3.8-15.2-.2-6 2.8-15.9 10.1-18.1 2.9-.9 4.4-.6 7.3-.2-6.1 2.5 1-.3-4.5 1.6-4.9 1.7-6.1 5.2-7 9.3-2 8.8 1.7 11.7 4.3 19.2 3.5 10.6-4.2 17.6-12.8 24-1.9 1.3-4.6 1-6.1-.6-1.7-1.4-1.4-3.8.5-5.1z"/><path d="M172 103.4c8.4-10 16.5-23 8.7-35l-1.6-2.4c-.4-.5-.2-.2-.4-.9 1.9-.1 3.9 1.8 5.1 3 11.4 11.1 3 28.6-4.6 39.5-1.3 1.7-4.1 2.2-6.1 1-1.9-1.1-2.4-3.5-1.1-5.2zm31.1-14.9C208 83.4 213.3 76 220 73c6.1-2.8 12.6-3.2 19.1-4.4 7.6-1.5 10.6-4.4 14.1-10.2 1.2-2 .4-.9 2.1-2.8.2 2 .3 1.5-.1 3.4-3.9 17-22.3 13-32.9 20.1-3.6 2.5-9.1 10.3-12.2 14.1-1.5 1.6-4.2 2-6.1.7-2-1.4-2.4-3.7-.9-5.4z"/><path d="M171 121.5c-9.2 15.2-25.8 61.7-12.2 77.1 4.8 5.4 10.5 9.7 16.9 13.1.7.7 10 4.4 10.6 5 2.4 2.5-4.5 1.3-1.3 3.7-14.7-4-28.1-8.1-37.1-18-5.3-5.7-8.1-7.7-7.8-15 .9-21.6 14.2-63.2 29.2-80.4 5.6-6.3 6.2-14.3 15.8-12.6 2 .5 11.2 5.8 9.9 7.2-3 3.5-12.1.2-24 19.9z"/><path d="M149.1 192.3c5.2 21.8 33.7 25 50.2 37.2 6.4 4.7 8.5 8.6 9.2 15.6.2 2.1.2 1.4-.1 3.2-1.5-2.2-1.8-3.6-2.7-5.9-2.8-7-9.1-10.5-16.5-13.7-20.1-8.8-42.3-13.1-48.7-34.9-.5-2 1-4 3.4-4.5 2.4-.3 4.7 1 5.2 3z"/><path d="M153.9 201.7c1.7 6.8 8.9 11.3 14.8 15.4 15.8 11.1 15.9 12 20.8 28.5 2.4 8 5 12.8 14.3 16.2 3 1.1.8.1 3.8 1.6-3 .4-3.3.4-6.3-.2-18.3-3.9-16.2-21.8-24.5-30.8-5.6-6-18.3-11.5-25.6-18.2-4-3.7-5.5-6.1-7.1-11.1-.4-2.3 1.4-4.6 4.1-4.9 2.7-.5 5.3 1.1 5.7 3.5z"/><path d="M157.8 213.3c6.4 13.5 8.2 24.1-3 36.3-2.7 2.9-3 3.5-2.5 7.4 1 7.4 2.7 11.4.7 19-1.3 5.2-4.5 10.1-10.4 12.2l-2.2.6c4.9-4.5 7.6-5.4 9-12 1.6-7.9-.4-11.5-2-19-1.1-5.1-.5-6.9 2.9-11 9-10.9 6.6-19.3.6-30.7-.8-1.7 0-3.6 2-4.3 1.8-.9 4-.1 4.9 1.5z"/><path d="M148.1 189.9c5.6 18 4.3 30.3-3.4 47.4-3 6.6-6.7 13.1-4.1 20.2 1.5 4.1-.2-1.2 1.2 3.4-1.9-1.3-1.8-1-3-2.7-4.8-6.8-1.4-15.3.9-22.4 5.6-16.5 6.3-27.2 0-43.8-.7-2 .6-4.1 2.9-4.7 2.4-.5 4.8.6 5.5 2.6zm12.7 27c3.2 9.1 3.8 13.9 2.3 23.5-.9 5.8-.7 11.5 4.3 16.1 3.7 3.4 7.7 3.2 11.7.2 4.1-3.2-2 1.3 2.9-2.2-.5 1.8-.3 1.7-1.5 3.2-4 5.1-10.6 5.3-15.8 1.4-6.6-5-7.8-12-7.4-19.1.6-8.8-.1-12.7-3.6-20.8-.7-1.7.4-3.6 2.3-4.2 1.9-.7 4.1.2 4.8 1.9zM190 109.7c6 1.1 18.3 5.1 23.1 4.3 5.5-1 7.5-9.2 4.2-12.6-5.3-5.5-12.8 3.8-7.9 6.9 4.3 2.6 7.5-1.4 5.3-4.4-.9-1.2-4.6-1-4 2.4l.2 1c-1.4-1.6-1.8-3.5.5-4.7 6.2-3.3 8.4 8.3.6 8.3-11.1 0-7.2-15.4 3.1-13.7 10.1 1.6 9 16.2.9 19.5-6.5 2.7-19.3-1.8-26.9-3.1-1.3-.2-2.1-1.3-1.9-2.3.4-1 1.6-1.8 2.8-1.6zm49.6 5.9c3-1.2 7.8-7.5 14-8.4 10.7-1.5 12.1 13.3 3.5 14.1-4.9.5-8.7-3.8-5.5-7.8 2.9-3.6 8.2.5 5.8 3.6-.7 1-2 .9-3 .3l.7-.1c2.4-.2 1.8-2.3.8-3.1-2.5-2.1-4.5 2.5-2.1 4 5.2 3.3 7.9-5.4 3-7.5-5.8-2.4-11.4 8.1-16.9 8.8-1.3 0-2.4-.9-2.4-2 0-.9.9-1.8 2.1-1.9zm-1.1 24.4c4.2-4 9.3-6.6 15.1-7.3 6.2-.8 10.7 2.1 12.3 7.3 3.4 10.5-12.8 17.6-17.3 9.1-3.3-6.2 5.1-14.7 10.7-8.3 3.9 4.5-3.5 10.3-6.1 6.1-.6-.9-.5-.9-.5-1.9.9 1.4 2.1 3.2 4.3 1.9 4.3-2.4-.3-8.2-4.1-5.9-5.1 3.2-1.5 11.9 6.2 8.1 6.6-3.3 3.4-12.3-2.7-12.9-4.6-.4-11.1 2.8-14.4 6.1-.8.9-2.3 1.2-3.2.5-1-.6-1.1-1.9-.3-2.8zm-25.2-56.1c4.9-3 10.5-4.5 16.3-4 6.2.5 10 4.3 10.5 9.7 1.1 10.9-16.1 14.6-18.8 5.3-2-6.8 8-13.3 12.2-5.9 2.9 5.2-5.6 9.3-7.2 4.7-.4-1-.3-.9-.1-2 .6 1.5 1.4 3.5 3.8 2.8 4.7-1.5 1.4-8.1-2.8-6.6-5.6 2.1-4 11.3 4.3 9.2 7.2-1.8 5.9-11.4 0-13.2-4.4-1.4-11.4.4-15.3 2.9-1 .8-2.5.7-3.2-.1-.9-.8-.7-2 .3-2.8zm-16.5-18.4c3.6 8.5 14.8 10.9 16.5 2.4 1.6-7.9-10.7-9.3-8.8-1.5.9 3.9 8.1 1.9 4.9-1.9-1-1.2-2.5-.4-3.6 0 1.4-1.7 3.1-2.4 4.7-.4 4.4 5.6-6.8 10-8.2 2.1-2-11.1 14.4-10.4 14.2 1.1-.1 8-7.4 11.7-13.9 9.2-4.3-1.6-7.4-4.9-9.5-9.5-.4-1.2.1-2.5 1.2-2.9.9-.4 2.1.2 2.5 1.4zm-34.6 144.4c6.3 6.1 14.2 10 23 11.1 9.4 1.2 16.2-3.2 18.8-11.1 5.1-15.9-19.4-26.8-26.3-13.9-5.1 9.5 7.7 22.4 16.2 12.7 6-6.8-5.4-15.6-9.3-9.3-.9 1.4-.7 1.3-.8 2.9 1.4-2.1 3.3-4.8 6.6-2.9 6.5 3.7-.5 12.6-6.3 8.9-7.7-4.9-2.3-18.1 9.4-12.4 10.1 5 5.2 18.8-4.1 19.7-7 .7-16.9-4.3-21.9-9.2-1.3-1.4-3.4-1.8-4.9-.8-1.5.9-1.7 2.9-.4 4.3zm-35.8-68.2c-24.8-8.1-37.9.8-57.9 11.5-12.3 6.6-20.2 9.2-34.8 9.7-2.6.1-1.3-.1-3.9.5 2 1.1 1.4 1 3.6 1.5 11.6 2.9 24.1.1 34.7-4.1 19.1-7.5 31.8-18 53.5-9.6 3.1 1.1 6.7-.1 8-2.7 1.3-2.6-.1-5.6-3.2-6.8z"/><path d="M120.8 124.7c-20.8-3.7-33.5-.5-51.7 8-8.1 3.8-11.5 5.1-21 4.7-11.9-.6-15.4-4.7-22.5-11.6-6.4-6.3-13.3-8.9-22.9-5.8-1.6.5-1.2.4-2.6 1.3 2 .3 1.1.3 3 .2 10.6-.3 13.4 1.1 19.2 8.4 6.9 8.5 12.4 13.1 25.1 14.4 11.1 1.2 16.3-.2 26.1-4.2 16.3-6.6 26.6-9.1 44.6-5.2 3.3.7 4-.5 4.8-3.3.7-2.9 1.2-6.3-2.1-6.9z"/><path d="M114.8 113.5c-13.7-6.9-22.1-4.4-36.1-.2-10 3-21.2 6.3-31.9 3.5-7.8-2-13.8-10.4-11.6-17 .9-2.6 2.2-2.9 4.2-4.6l-1.2-.3c-3.2-.2-6.1 3.3-6.9 5.7-3.1 8.6 3.6 18.7 13.1 22 12.9 4.6 26.5 1.4 39.3-1.6 9.7-2.2 17.2-3.9 25.9 1.1 2.8 1.6 5.4.4 7.3-2 1.8-2.3.7-5-2.1-6.6z"/><path d="M101.8 97.7c-23.4-.6-29.5-20.4-50.3-23.1-15-1-32.3 6.6-37.7 19.3-.6 1.5-1.4 4.3-1.3 5.8l.4 1.5c1.2-2 .5-.6 1.4-2.7 3.9-8.6 12.2-14.5 22.3-17.1 11-2.9 18.1-1.3 26.5 5.1 12.9 9.9 19.3 18.5 38.4 19.7 2.8.1 5-1.8 5.1-4.2.2-2.3-2-4.2-4.8-4.3z"/><path d="M98.7 91.7c-5.3-3.5-12.7-8.5-12-14.9.5-4.8 3.6-9.1 3.8-15.2.2-6-2.8-15.9-10.1-18.1-2.9-.9-4.4-.6-7.3-.2 6.1 2.5-1-.3 4.5 1.6 4.9 1.7 6.1 5.2 7 9.3 2 8.8-1.7 11.7-4.3 19.2-3.5 10.6 4.2 17.6 12.8 24 1.9 1.3 4.6 1 6.1-.6 1.7-1.4 1.4-3.8-.5-5.1z"/><path d="M108.8 103.4c-8.4-10-16.5-23-8.7-35l1.6-2.4c.4-.5.2-.2.4-.9-1.9-.1-3.9 1.8-5.1 3-11.4 11.1-3 28.6 4.6 39.5 1.3 1.7 4.1 2.2 6.1 1 1.9-1.1 2.4-3.5 1.1-5.2zM77.7 88.5C72.8 83.4 67.5 76 60.8 73c-6.1-2.8-12.6-3.2-19.1-4.4-7.6-1.5-10.6-4.4-14.1-10.2-1.2-2-.4-.9-2.1-2.8-.2 2-.3 1.5.1 3.4 4 17 22.4 12.9 33 20 3.6 2.5 9.1 10.3 12.2 14.1 1.5 1.6 4.2 2 6.1.7 1.9-1.3 2.3-3.6.8-5.3z"/><path d="M109.8 121.5c9.2 15.2 25.8 61.7 12.2 77.1-4.8 5.4-10.5 9.7-16.9 13.1-.5.5-9.7 3.6-10.2 4-2.1 2.2 4.5 1.6 2.2 3.5-1.1.9 6-2.2 4.9-1.3 14.7-4 21.9-5.6 30.9-15.5 5.3-5.7 8.1-7.7 7.8-15-.9-21.6-14.2-63.2-29.2-80.4-5.6-6.3-6.2-14.3-15.8-12.6-2 .5-11.2 5.8-9.9 7.2 3 3.5 12.1.2 24 19.9z"/><path d="M131.7 192.3c-5.2 21.8-33.7 25-50.2 37.2-6.4 4.7-8.5 8.6-9.2 15.6-.2 2.1-.2 1.4.1 3.2 1.5-2.2 1.8-3.6 2.7-5.9 2.8-7 9.1-10.5 16.5-13.7 20.1-8.8 42.3-13.1 48.7-34.9.5-2-1-4-3.4-4.5s-4.7 1-5.2 3z"/><path d="M126.8 201.7c-1.7 6.8-8.9 11.3-14.8 15.4-15.8 11.1-15.9 12-20.8 28.5-2.4 8-5 12.8-14.3 16.2-3 1.1-.8.1-3.8 1.6 3 .4 3.3.4 6.3-.2 18.3-3.9 16.2-21.8 24.5-30.8 5.6-6 18.3-11.5 25.6-18.2 4-3.7 5.5-6.1 7.1-11.1.4-2.3-1.4-4.6-4.1-4.9-2.6-.5-5.2 1.1-5.7 3.5z"/><path d="M123 213.3c-6.4 13.5-8.2 24.1 3 36.3 2.7 2.9 3 3.5 2.5 7.4-1 7.4-2.7 11.4-.7 19 1.3 5.2 4.5 10.1 10.4 12.2l2.2.6c-4.9-4.5-7.6-5.4-9-12-1.6-7.9.4-11.5 2-19 1.1-5.1.5-6.9-2.9-11-9-10.9-6.2-24.6 2.5-36.9.8-1.7-3.2 2.7-5.1 1.9-1.8-.9-4.1-.1-4.9 1.5z"/><path d="M137.1 187.6c-3.7 10.7-7.1 23.8-2.5 34.7 1 2.4.8 1.8 2.7 3.8.4-3.1.4-1.4.2-4.3-.7-12.1 2.6-20.7 7.9-31.7.8-2-.4-4.1-2.6-4.8-2.4-.7-4.9.3-5.7 2.3zM120 216.9c-3.2 9.1-3.7 13.9-2.3 23.5.9 5.8.7 11.5-4.3 16.1-3.7 3.4-7.7 3.2-11.7.2-4.1-3.2 2 1.3-2.9-2.2.5 1.8.3 1.7 1.5 3.2 4 5.1 10.6 5.3 15.8 1.4 6.6-5 7.8-12 7.4-19.1-.6-8.8.1-12.7 3.6-20.8.7-1.7-.4-3.6-2.3-4.2-1.9-.7-4.1.2-4.8 1.9zM90.7 109.7c-6 1.1-18.3 5.1-23.1 4.3-5.5-1-7.5-9.2-4.2-12.6 5.3-5.5 12.8 3.8 7.9 6.9-4.3 2.6-7.5-1.4-5.3-4.4.9-1.2 4.6-1 4 2.4l-.2 1c1.4-1.6 1.8-3.5-.5-4.7-6.2-3.3-8.4 8.3-.6 8.3 11.1 0 7.2-15.4-3.1-13.7-10.1 1.6-9 16.2-.9 19.5 6.5 2.7 19.3-1.8 26.9-3.1 1.3-.2 2.1-1.3 1.9-2.3-.3-1-1.5-1.8-2.8-1.6zm-49.5 5.9c-3-1.2-7.8-7.5-14-8.4-10.7-1.5-12.1 13.3-3.5 14.1 4.9.5 8.7-3.8 5.5-7.8-2.9-3.6-8.2.5-5.8 3.6.7 1 2 .9 3 .3l-.7-.1c-2.4-.2-1.8-2.3-.8-3.1 2.5-2.1 4.5 2.5 2.1 4-5.2 3.3-7.9-5.4-3-7.5 5.8-2.4 11.4 8.1 16.9 8.8 1.3 0 2.4-.9 2.4-2 0-.9-.9-1.8-2.1-1.9zm1 24.4c-4.2-4-9.3-6.6-15.1-7.3-6.2-.8-10.7 2.1-12.3 7.3-3.4 10.5 12.8 17.6 17.3 9.1 3.3-6.2-5.1-14.7-10.7-8.3-3.9 4.5 3.5 10.3 6.1 6.1.6-.9.5-.9.5-1.9-.9 1.4-2.1 3.2-4.3 1.9-4.3-2.4.3-8.2 4.1-5.9 5.1 3.2 1.5 11.9-6.2 8.1-6.6-3.3-3.4-12.3 2.7-12.9 4.6-.4 11.1 2.8 14.4 6.1.8.9 2.3 1.2 3.2.5 1.1-.6 1.2-1.9.3-2.8zm25.3-56.1c-4.9-3-10.5-4.5-16.3-4-6.2.5-10 4.3-10.5 9.7-1.1 10.9 16.1 14.6 18.8 5.3 2-6.8-8-13.3-12.2-5.9-2.9 5.2 5.6 9.3 7.2 4.7.4-1 .3-.9.1-2-.6 1.5-1.4 3.5-3.8 2.8-4.7-1.5-1.4-8.1 2.8-6.6 5.6 2.1 4 11.3-4.3 9.2-7.2-1.8-5.9-11.4 0-13.2 4.4-1.4 11.4.4 15.3 2.9 1 .8 2.5.7 3.2-.1.9-.8.7-2-.3-2.8zM84 65.5c-3.6 8.5-14.8 10.9-16.5 2.4-1.6-7.9 10.7-9.3 8.8-1.5-.9 3.9-8.1 1.9-4.9-1.9 1-1.2 2.5-.4 3.6 0-1.4-1.7-3.1-2.4-4.7-.4-4.4 5.6 6.8 10 8.2 2.1 2-11.1-14.4-10.4-14.2 1.1.1 8 7.4 11.7 13.9 9.2 4.3-1.6 7.4-4.9 9.5-9.5.4-1.2-.1-2.5-1.2-2.9-.9-.4-2.1.2-2.5 1.4zm34.6 144.4c-6.3 6.1-14.2 10-23 11.1-9.4 1.2-16.2-3.2-18.8-11.1-5.1-15.9 19.4-26.8 26.3-13.9 5.1 9.5-7.7 22.4-16.2 12.7-6-6.8 5.4-15.6 9.3-9.3.9 1.4.7 1.3.8 2.9-1.4-2.1-3.3-4.8-6.6-2.9-6.5 3.7.5 12.6 6.3 8.9 7.7-4.9 2.3-18.1-9.4-12.4-10.1 5-5.2 18.8 4.1 19.7 7 .7 16.9-4.3 21.9-9.2 1.3-1.4 3.4-1.8 4.9-.8 1.5.9 1.7 2.9.4 4.3z"/><path d="M135.5 193c.3-19.4 1.2-39.7 2.1-59.2.7-14.1-1.4-37.2 8.2-48.8 1.7-2.1 3.6-4.1 5.5-6 8.9-9 19.1-17.2 22.4-30 2.1-8.1-2.5-17.9-9.8-19.1-2.8-.5-3.7.5-6.1 1.8.4-1.1.3-1 1.1-1.9 4.6-4.8 11.7-1.1 15 2.5 6.7 7.5 5.8 17.1 1.2 26.9-7.3 15.5-20 22.5-27.1 35.1-.2 1.3-.3 2.5-.4 3.8-.8 11.3-.8 23.5-.9 34.7-.2 19.3-.5 39.3-.2 58.5 0 3.2-2.4 6.2-5.4 6.6-3.1.5-5.5-1.7-5.6-4.9z"/><path d="M129.1 87.1c11.1-20.6-3.1-35.7 4.9-55.2 6.6-13.5 21.8-24.8 35.4-23.1 1.6.2 4.4.9 5.7 1.7l1.1 1.1c-2.4.1-.8.1-3-.1-9.4-.9-18.6 3.4-26 10.9-7.9 8.1-10.1 15-8.7 25.6 2.2 16.1 6.5 25.9-2 43.1-1.3 2.4-1.4 1.5-3.4.4-2-1-5.4-2-4-4.4z"/><path d="M125.4 81.4c-.4-6.4-1.1-15.2-7-17.9-4.4-2-9.7-1.4-15.1-4.2C98 56.6 90.9 49 92.6 41.6c.7-3 1.6-4.2 3.4-6.4-.8 6.6.2-1-.8 4.7-.9 5.1 1.5 7.8 4.6 10.7 6.6 6.1 11 4.3 18.8 5.8 10.9 2.2 13.2 12.4 14.5 23.1.2 2.3-1.4 4.5-3.5 5.1-2.1.5-4-.9-4.2-3.2z"/><path d="M138.5 122.1c-1.9-20-7.3-43.2-29.9-42.5-2.6.1-4.4.5-6.9.3l1.4-1c1.9-1.1 6.1-2.1 8.2-2.4 23.6-3.1 32 23.4 35 43.5.3 2.3-1.3 4.6-3.4 5.2-2.1.5-4.1-.9-4.4-3.1zm-5.4-60.5c-2.1-6.8-5.8-15.1-5.1-22.4.6-6.6 3.5-12.5 5.6-18.8C136.1 13 135 9 131.7 3.1c-1.1-2-.6-.8-1.4-3.2 1.8.8 1.5.5 2.9 1.8 12.9 11.8.2 25.8 1.1 38.5.3 4.4 3.3 12.8 5 17.4.7 2.1.8 4.8-1.3 5.9s-4.2.2-4.9-1.9zm10.3 27.5c2.7-5.4 15.1-19 16.7-23.6 1.9-5.3-4.3-11.1-8.8-9.9-7.4 1.9-3 13 2.1 10.2 4.4-2.4 2.5-7.2-1.2-6.8-1.5.2-3.1 3.5.1 4.6l1 .3c-2.1.4-3.9-.2-3.8-2.7.2-7 11.4-3.2 7.5 3.6-5.5 9.6-16.9-1.3-10.4-9.5 6.4-8 18.5.2 17.4 8.9-.9 7-11.1 15.8-16 21.9-.8 1-1.8 2.5-2.7 1.7-.8-.7-2.7 2.3-1.9 1.3zm31.3-45.7c.4-3.2-2.7-10.5-.3-16.3 4-10.1 17.6-3.9 14 4-2 4.5-7.6 5.6-9.5.9-1.7-4.3 4.6-6.9 6-3.3.5 1.1-.2 2.1-1.3 2.7l.3-.6c1-2.2-1.1-2.7-2.3-2.3-3 1.1-.1 5.2 2.5 3.8 5.4-2.9-.8-9.6-5-6.3-4.9 3.8 1.4 13.9-.7 19-.6 1.1-1.9 1.6-2.9 1.1-1-.4-1.3-1.7-.8-2.7z"/><path d="M134.1 50.5c-.2-5.8 1.3-11.3 4.6-16.1 3.5-5.1 8.7-6.5 13.7-4.3 10.1 4.5 4.6 21.3-4.7 19-6.9-1.7-7.6-13.6.9-13.5 6 0 5.3 9.5.5 8.6-1.1-.2-.9-.2-1.8-.9 1.6.2 3.8.5 4.3-1.9 1-4.8-6.4-5.2-7.1-.8-1 5.9 7.9 9.1 10.2.8 2-7.1-6.9-10.8-11.4-6.6-3.4 3.2-5.3 10.1-5 14.8.2 1.2-.6 2.5-1.7 2.8-1.3.1-2.3-.7-2.5-1.9zM110 55.7c9.1 1.1 16.8-7.4 10.2-13.1-6.1-5.3-13.4 4.7-5.7 6.9 3.9 1.1 5.6-6.1.8-5.2-1.6.3-1.6 2-1.8 3.1-.8-2-.5-3.9 2-4.3 7.1-1 5.3 10.9-2.2 8.2-10.6-3.8-1.9-17.6 8-11.7 6.9 4.1 6.5 12.2 1.1 16.6-3.6 2.9-7.9 4-12.9 3.5-1.3-.3-2.1-1.4-2-2.5.1-1.1 1.2-1.8 2.5-1.5zm30.8 55.5c-2.6-4.4-2.5-16.8-9.4-23.9-12-12.2-27.9 5-18 14.3 5.7 5.3 14.5 3.5 14.4-4.4-.1-7.2-10.8-7.2-10.8-1.1 0 1.9 1.6 3 3.5 3.2l-.8-.7c-2.8-2.6 0-4.6 2-4.7 5.1-.2 3.2 7.5-1.2 7.1-9.7-.9-4.6-14.4 3.5-12.2 9.5 2.5 13.5 20.9 17.4 37.4 1.6 1.3-.9-9 .2-10.3.9-1.4.6-3.4-.8-4.7zm5.2-17.1c2.3-2.4 4-10 9.3-13.3 9.2-5.8 16.5 7.2 9 11.5-4.3 2.4-9.5 0-8.2-4.9 1.1-4.4 7.7-2.9 6.8.9-.3 1.2-1.4 1.6-2.6 1.5l.6-.3c2.1-1.2.7-2.9-.5-3.2-3.1-.9-3.1 4.1-.3 4.5 6.5.9 5.7-12.2-4.5-6.3-4.1 2.3-7 7.2-9 13.5-1.2.5-1.1-.2-1.6-1.2s-.1-2.2 1-2.7z"/><path d="M138.8 163.2c-1.4 3.6-1.6 5.2-2.3 4.6-5.2-3.9-7.4-14.3-8-21.5-.3-3.9 0-6.8-.9-10.8-1.3-6.5 1.5-12.5-1.2-20.4-.9-2.6-2.5-5.2-4.4-7.1-1.9-1.9-.5-.1-2-2.3 1.7 0 1.6-.2 3.3.6 5.8 2.6 8.9 9.8 9.9 15.7.4 2.4.6 10 1.1 11.3.9 2.6 1.3 4.5 1.6 7.2 1 7.1.7 10.7 7.5 14.3 2.3 1.2 3.2 4.1 1.9 6.4-1.3 2.4-4.2 3.2-6.5 2z"/><path d="M143.3 157.9c-4.6-18.8-2.8-26 8.4-41.3 2.9-4 8.4-11.3 8.1-16.4-.1-1-.1-.2 0-1.3.8.3.7.2 1.2.8 3.4 4.7-2.3 15.5-4.6 19.9-8.1 14.8-9.3 19.1-3.9 35.7.7 2.5-.7 5.2-3.3 5.9-2.6.7-5.2-.8-5.9-3.3z"/></g><g fill="#FFF"><path d="M104.4 336.5s.1-.1.1-.2.1-.2.1-.2c0-.1 0-.4-.1-.8s-.2-.7-.2-.9l-.6.1c-.1-2.5 0-5.1.2-7.7.2-2.6.8-5.2 1.5-7.6 1.2-3.3 2.5-6.5 4-9.6 1.5-3 2.9-6.2 4.2-9.5 0-.3 0-.5.1-.7 0-.2.1-.4.1-.6 0-.2-.1-.4-.2-.4s-.3 0-.4.1l-.6.3c-.2.1-.4.1-.5.1-.1-.1-.4-.2-.9-.3-.5-.2-.7-.2-.8-.3-.2 0-.4-.1-.8-.1-.4-.1-.8-.1-1.2-.2-.4-.1-.8-.1-1.1-.2-.4 0-.6-.1-.7-.1l-.5-.3c.1 0 .3 0 .6-.1.3 0 .6-.1.9-.1.3-.1.6-.1.8-.2.2-.1.4-.1.5-.1h.3c.2-.1.3-.1.3-.1l6.7-1.8s.1 0 .1.1c.1.1.1.1.2.1v.2s0 .2-.1.4-.2.5-.3.8c-.1.3-.2.5-.3.8l-.2.4c-.3.5-.6 1.3-.9 2.5-.3 1.2-.6 2.4-1 3.6-.3 1.2-.7 2.4-1.1 3.4-.4 1-.7 1.6-1.1 1.7.1 0 .2.1.3.3l.3.3.1.2v.2c-.1.2-.2.5-.4 1s-.3 1-.4 1.5c-.1.5-.3 1-.4 1.4-.2.4-.3.6-.4.6.2.8.2 1.6 0 2.7-.2 1-.5 1.9-.8 2.7 0 .1-.1.2-.2.5s-.2.4-.3.5v.3s.1.1.2.3c.1.1.2.2.2.3-.2.3-.4.5-.5.7-.1.2-.3.4-.5.7 0 0 .1 0 .1.1.1.1.1.1 0 .1v.1l.1.1s0 .1.1.3c0 0 0 .1-.1.1s-.1.1-.1.1 0 .1.1.3c.1.2.2.2.2.3 0 .1-.1.1-.2.2l-.1.1c0 .3-.1.5-.1.6 0 .3.1.6.2.9l.3.9v.3c0 .2-.1.4-.1.9s0 .7-.1.9c-.1-.1-.2-.1-.3 0 0 .1-.1.2-.2.5-.1.2-.1.4-.1.5 0 0 0 .1.1.1s.1.1.2.1l.1.1s0 .1-.1.1c0 0 0 .1-.1.2s-.1.2-.1.2v.1l.1.1c0 .2 0 .3.1.3s.1.2.1.3c.1.3 0 .5-.2.6.2 0 .4.1.5.4.1.3.2.6.3 1 .1.4.1.7.1 1.1v.6c.3-.1.5-.1.6 0 .1.1.1.3.1.7.1 0 .2.1.3.1h.3c.1 0 .2 0 .4.1.2 0 .3.1.5.2s.3.2.5.3c.2.1.2.1.3.2l7.8-.4c-.2.3-.5.5-.7.6-.3 0-.8.2-1.5.4s-1.4.4-2.2.7c-.8.2-1.5.5-2.2.7s-1.2.3-1.5.4l-2.3.6c-.8.2-1.5.3-2.2.4h-.1c-.3-.2-.7-.4-1.2-.5-.5-.1-.8-.3-1-.5v-.4c0-.2-.1-.5-.1-.7-.1-.2-.2-.2-.4-.1l-.5-2.1zm2.3 2.5l.3-.1-.2-.1-.1.2zm1 .6c0 .2.1.3.2.3.2 0 .2-.1.2-.3 0-.2-.1-.3-.3-.3-.1 0-.2.1-.1.3zm1-6.3c0 .2.1.2.2.2s.2-.1.1-.3c0-.2-.1-.3-.1-.2-.1 0-.2.1-.2.3zm.5-13.3c0 .2.1.3.2.2.1 0 .2 0 .2-.3 0-.2 0-.3-.2-.3-.1.1-.2.2-.2.4zm3.9 17.7c0 .2.1.3.3.3.2.1.3 0 .2-.2 0-.2-.1-.3-.3-.4-.1 0-.2.1-.2.3zm.4-40.2c0 .2.1.3.2.4.2-.1.2-.2.2-.4s-.1-.3-.2-.2c-.1-.1-.2 0-.2.2zm1.1-1.3c0 .2 0 .3.2.3s.2 0 .3-.2c0-.2 0-.3-.2-.3-.2-.1-.3 0-.3.2zm.1 1.8c0 .2.1.3.3.3.2 0 .2-.2.2-.3 0-.2-.1-.3-.3-.3-.2.1-.2.1-.2.3z"/><path d="M98 351.1c-.4 0-.8.2-1.4.5-.6.3-1.1.7-1.7 1.2-.6.5-1.2.9-1.7 1.3-.6.4-1 .7-1.3.9v-.2c0-.5.2-.9.7-1.1.4-.2.8-.5 1.1-.7.1-.1.1-.2.2-.4 0-.2.1-.3.1-.3.3-.5.8-1 1.5-1.5.6-.5 1.4-.9 2.1-1.3.8-.4 1.5-.7 2.3-1 .7-.2 1.4-.4 1.9-.4 1 0 2.2.2 3.8.6 1.6.4 3.4.9 5.3 1.6 1.9.6 4 1.3 6.1 2.1 2.1.7 4.1 1.4 6.1 2.1 1.9.6 3.7 1.2 5.4 1.6 1.7.4 3 .6 4 .6.7 0 1.3 0 1.7-.1.5-.1.9-.2 1.2-.5.3-.2.6-.6.8-1 .2-.4.4-1 .6-1.7 0-.2.1-.3.2-.3.1-.1.2-.1.3-.1.1 0 .2-.1.3-.2.1-.1.1-.2.1-.4s0-.4-.1-.7c-.1-.3-.1-.5-.1-.7 0 0 0-.1.1-.3.1-.2.1-.2.1-.3l-.1-9.4v-2s-.1-.1-.1-.3c0-.2 0-.4-.1-.6v-1.3c0-.3 0-.6-.1-.9v-1.5c-1.3.5-2.4 1.1-3.6 1.8-1.1.7-2.2 1.3-3.1 1.9-.8.5-1.7.9-2.6 1.3-.9.4-1.9.8-2.8 1.3-.1 0-.2.1-.5.2-.2.1-.4.2-.5.2-.1 0-.3 0-.5-.1s-.6-.2-.8-.4l-.6-.6c-.2-.2-.1-.4.1-.7-.2.2-.4.3-.5.3h-.5c-.3 0-.6-.2-1-.7-.4-.4-.7-.9-1.1-1.5-.3-.6-.6-1.1-.9-1.7-.2-.6-.3-1-.3-1.3 0-.7 0-1.4.1-2.3.1-.8.3-1.8.6-2.8s.8-2.1 1.3-3.2 1.4-2.3 2.4-3.6c-.3 0-.8.1-1.4.2-.6.2-1.3.3-2 .5s-1.4.3-2 .5-1.2.2-1.5.2l.6-.9c.9-.6 1.7-1.1 2.5-1.5s1.4-.8 2.1-1.1 1.3-.7 2-1c.7-.3 1.4-.7 2.3-1.1.1 0 .4-.1.8-.2s.7-.1.9-.1c.2 0 .4 0 .5.1.1.1.1.2 0 .5l-.2.4c-.1.2-.3.4-.4.7-.2.2-.3.5-.5.7-.2.2-.2.3-.2.4-.1.4-.3 1-.5 1.7s-.4 1.5-.7 2.3c-.2.8-.4 1.5-.7 2.2-.2.7-.4 1.1-.4 1.2.1.6.1 1.4.1 2.1 0 .8-.1 1.5-.1 2.2v1.3l2.9 2.7c.6.1.9.1 1 .1 1 0 2-.2 2.9-.5.9-.3 1.8-.8 2.6-1.5l.3.4 3.1-2.2c.3-.2.4-.5.3-1.1-.1-.5-.1-.9-.1-1.2 0 0 0-.2-.1-.4s-.1-.5-.2-.8c-.1-.3-.1-.6-.2-.8s-.1-.4-.1-.5c0-1.6-.3-3.2-.9-4.8-.6-1.6-1.2-2.9-1.9-4v-.4c.5 0 1 0 1.6.1.6 0 1.1.2 1.6.3h4.9c.6 0 1.2-.1 1.8-.1l1.8-.3c.6-.2 1.3-.3 2.1-.6 0 0 .1 0 .2.1s.1.1.1.2v.2c0 .2-.1.4-.3.5s-.4.3-.6.4c-.2.1-.4.2-.7.2-.2.1-.4.1-.5.1-.1 0-.2.1-.5.2-.2.1-.5.2-.8.3-.3.1-.5.2-.8.3-.2.1-.4.1-.5.2l.2.3c-.1.1-.3.2-.6.3-.3.1-.6.1-.9.2-.3.1-.6.1-.8.2-.2.1-.3.2-.3.4.3.8.5 1.5.7 2.1s.3 1.2.4 1.7c.1.5.2 1.1.2 1.6s0 1.1-.1 1.8l.6-.3v.7c.3 2.1.5 4.1.6 6.1.2 2 .2 4.1.2 6.2v3.3c0 .1-.1.4-.1.7-.1.4-.1.6-.1.7 0 .6-.1 1.3-.2 2l-.3 2.2-.6 2.1c-.2.7-.6 1.3-.9 1.8-.7.9-1.6 1.7-2.5 2.4-1 .7-2 1.3-3.1 1.8s-2.2.9-3.3 1.1c-1.1.2-2.2.4-3.2.4-1.2 0-2.8-.3-4.9-.9-2.1-.6-4.4-1.3-6.8-2.2-2.4-.9-4.8-1.8-7.1-2.8s-4.3-1.9-5.8-2.6c-.5-.3-1.2-.6-2-.8-.8-.2-1.5-.4-2.2-.4l-1.8.1zm21.4-17.7c0 .2.1.3.3.3.1 0 .2-.1.2-.3 0-.2-.1-.3-.2-.3-.2 0-.3.1-.3.3zm.8-2.1c0 .2.1.3.2.3.2 0 .2-.1.2-.3 0-.2-.1-.3-.2-.3s-.2.1-.2.3zm3.3-9.7c0 .2.1.3.2.3.2 0 .3-.1.3-.3 0-.3-.1-.4-.3-.4-.1 0-.2.2-.2.4zm14.4 26.4c0 .2.1.3.2.3.2 0 .3-.1.3-.3 0-.2-.1-.3-.3-.3-.1-.1-.2.1-.2.3zm0 4c0 .3.1.4.2.4.2 0 .3-.1.3-.4 0-.2-.1-.3-.3-.3-.1-.1-.2.1-.2.3zm3.9-21.3c0 .1 0 .2.1.2.2-.1.2-.2 0-.3 0-.1-.1 0-.1.1zm.2-9.5c0 .2.1.3.2.3.2 0 .2-.1.2-.3 0-.3-.1-.4-.2-.4s-.2.2-.2.4zm0 25.1c0 .2.1.3.2.3.2 0 .2-.1.2-.3 0-.2-.1-.3-.2-.3-.1-.1-.2.1-.2.3z"/><path d="M145.6 325.1c.7-1.6 1.7-3.1 2.9-4.2 1.2-1.2 2.6-2.1 4.3-2.8 1.7-.6 3.6-.9 5.7-.8.2 0 .5 0 1.1.1l2 .3c.7.1 1.4.3 2.1.5.7.2 1.1.3 1.3.5.2.2.5.3.9.5l.6.3.2.5c-.3-.1-.7-.1-1.2.1s-.9.4-1.2.4c-.8-.8-1.7-1.4-2.7-1.8s-2-.5-2.9-.6c-.9 0-1.6 0-2.1.1-.6.1-.7.2-.5.2-1 0-1.8.2-2.5.7s-1.4 1.1-1.9 1.7-.9 1.2-1.1 1.8c-.3.6-.4 1-.4 1.1v2.1c0 .7.1 1.4.1 1.9 1.3 0 2.6 0 3.8-.1l3.5-.3 3.5-.3c1.2-.1 2.5-.1 3.8-.1 0 .1-.2.2-.5.3-.3.1-.7.2-1.1.3l-1.2.3c-.4.1-.6.1-.8.1-.2 0-.6 0-1.2.1s-1.3.2-2.1.3l-2.1.3c-.6.1-1 .1-1.2.1-.5.1-.9.1-1.1.2-.2 0-.4.1-.6.1-.2 0-.4.1-.6.1-.2 0-.5 0-1 .1-.1 0-.3.1-.5.3-.2.2-.3.3-.3.5 0 .5 0 1 .3 1.5.2.6.5 1.2.9 1.8.4.6.8 1.3 1.2 1.9.4.7.9 1.3 1.3 1.9.1.1.3.2.7.3s.6.2.7.2c0 0 .2 0 .3.1.2.1.3.1.3.1l3.5.5c.7-.5 1.5-.8 2.3-1.1.9-.2 1.7-.5 2.4-.8.1 0 .3-.2.6-.3.3-.2.5-.3.6-.3.1 0 .4-.1.7-.3.4-.2.6-.3.8-.3l-.1.1c0 .3-.3.6-.8.9-.5.3-1.1.6-1.8.9-.7.3-1.3.5-2 .7-.6.2-1.1.3-1.4.3l-.3.3c-.8.6-1.6 1-2.4 1.2-.8.2-1.8.4-2.9.4l-.2.2h-1.1c-1.3 0-2.6-.3-3.8-.9-1.3-.6-2.4-1.3-3.4-2.2s-1.8-1.9-2.4-3.1c-.6-1.2-.8-2.4-.8-3.8.7-1.7 1.1-3.5 1.8-5.1zm3-11.1v-.3l.7-.7c.3-.3.7-.6 1-.9.4-.3.7-.6 1.1-.8.4-.2.7-.3.9-.3.6 0 1.1.2 1.5.4.4.2.6.7.5 1.3 0 .3-.2.7-.6 1.1-.4.4-.8.8-1.3 1.2s-1 .7-1.5.9c-.5.2-.9.4-1.2.4-.5 0-.8-.2-.9-.7-.2-.5-.2-.9-.2-1.3v-.3zm4-.8c0 .2.1.2.2.2s.2 0 .2-.2-.1-.2-.2-.3c-.2.1-.2.2-.2.3zm.7-7.3c.3-.4.6-.7 1-1 .4-.3.8-.6 1.3-.8.5-.2.9-.3 1.2-.3 0 0 .1 0 .2.1l1.1 1.2c0 .2.1.2.1.3 0 .5-.2 1-.6 1.3-.4.3-.8.6-1.3.8-.5.2-1 .4-1.5.4-.5.1-1 .1-1.4.1-.2 0-.3-.2-.4-.5s-.1-.4-.2-.5v-.1c0-.3.2-.7.5-1zm1.7 33.3c0 .2 0 .3.1.3s.1 0 .1-.2 0-.3-.1-.3c0 0-.1.1-.1.2zm1.7-29.1c.3-.4.7-.8 1.1-1.2.5-.4.9-.7 1.4-.9.5-.3.9-.4 1.3-.3.2 0 .4.1.5.3.2.2.3.4.5.6.2.2.3.5.3.7.1.2.1.4.1.6 0 .5-.2.9-.7 1.2-.5.2-.9.5-1.2.7-.1 0-.2.1-.4.2s-.4.2-.6.4c-.2.2-.4.3-.7.4-.2.1-.4.2-.4.3h-.6c-.5 0-.8-.2-.9-.6-.2-.4-.2-.8-.2-1.3.1-.3.2-.7.5-1.1zm1.4 28.8c0 .2.1.2.2.2s.1 0 .1-.2 0-.3-.1-.3-.2.1-.2.3zm.8.5c0 .2 0 .3.2.3.1 0 .1 0 .1-.2s0-.3-.1-.3-.2 0-.2.2zm1.9-1.1c0 .2.1.2.2.2s.2-.1.2-.2c0-.2-.1-.2-.2-.2s-.2 0-.2.2zm1.3-.4c0 .2 0 .2.1.2s.2 0 .2-.2 0-.2-.1-.3c-.1.1-.2.1-.2.3zm2.9-1.3c0 .2.1.3.2.3s.2-.1.2-.3c0-.2-.1-.2-.2-.2s-.2 0-.2.2z"/><path d="M141.7 355.3s-.3.1-.9.5c0 0 0-.1.1-.2l.3-.3.3-.3c.1-.1.2-.1.2-.2v-.1c.2-.3.5-.5.9-.6.4-.2.8-.3 1.2-.4.4-.1.9-.2 1.3-.2.4-.1.8-.1 1.1-.2h1.4l-.7-.6c.1 0 .5.1 1.3.2s1.8.3 3.1.4c1.3.2 2.6.3 3.8.5 1.3.2 2.4.3 3.4.5s1.6.3 1.8.3c.9.5 1.7.8 2.3 1.2.6.3 1.4.7 2.1 1 .8.4 1.5.7 2.2 1 .7.3 1.2.6 1.7.8.4.2.7.3.7.3.7-1.1 1.1-2 1.3-2.8.2-.8.2-1.5 0-2.2-.3-2.5-.4-4.9-.4-7.2 0-2.4-.1-4.7-.3-7.1v-1.2c0-.2 0-.4-.1-.6-.1-.2-.1-.4-.3-.7 0-.4 0-1.1-.1-2.2l-.3-3.4-.3-3.5c-.1-1.1-.1-1.9-.1-2.3-.1-2.6-.1-5.3-.1-8.2 0-2.8.3-5.6 1-8.3.1-.4.2-.8.5-1.1.3-.3.5-.6.8-1 .2-.1.7-.3 1.4-.7.6-.3 1.2-.6 1.8-1 .6-.4 1.2-.6 1.9-.8.1 0 .3-.1.5-.1.2-.1.5-.1.8-.2.3-.1.5-.1.8-.2.2-.1.4-.1.5-.1 0 0 .1-.1.3-.1s.4 0 .6-.1c.2 0 .4-.1.7-.1h.4c.1 0 .2.2.5.5.2.3.5.6.7 1s.4.7.6 1.1c.2.4.2.6.2.7-.3.6-.5 1.2-.7 1.5-.2.4-.2.7-.2.9 0 .2.2.3.5.4.3.1.8.1 1.4.1.2 0 .4-.1.8-.2s.7-.2 1.1-.4c.4-.1.8-.3 1.2-.4.4-.2.7-.3.9-.3.1.2.1.4-.2.6-.2.2-.5.4-.8.6-.3.2-.6.3-.9.5s-.4.2-.5.2l-.5.6c-.3 0-.4 0-.4.1s-.1.1-.5-.1c-.4.5-.7.7-.8.7l.1.2c-.3.2-.5.4-.7.5s-.3.3-.4.3-.2.1-.4 0c-.1 0-.4-.2-.7-.3-.1 0-.3-.4-.5-1s-.4-1.3-.7-2.1c-.2-.8-.4-1.5-.6-2.1-.2-.6-.3-1-.3-1.1l-.5-.5c-.2-.1-.3-.2-.6-.1-.5.2-.9.5-1.1.9-.2.4-.4.8-.5 1.3-.1.3-.2.9-.4 1.7-.2.8-.4 1.6-.6 2.5-.2.9-.4 1.7-.6 2.5-.2.8-.3 1.3-.5 1.5-.1.2-.1.6-.2 1s-.1.9-.2 1.4c-.1.5-.1.9-.1 1.3s-.1.7-.1.8c0 .1 0 .5-.1 1.2 0 .7-.1 1.5-.1 2.4 0 .9 0 1.8-.1 2.7 0 .9-.1 1.6-.1 2.1v1.2c.2 0 .4-.1.8-.1s.6-.1.8-.1h.2c.1 0 .1 0 .1.1.2-.1.4-.2.8-.2.4-.1.7-.1.8-.2.2-.1.4-.1.4-.1h-.1l.4-.2c.4-.2.7-.4 1-.6s.6-.4 1-.6l.2.1v.1c0 .2 0 .3-.2.4-.2.1-.3.1-.4.3-.1.1-.3.2-.5.4s-.4.3-.4.3c-.5.5-.9.8-1.2 1.1-.4.3-.7.5-1.1.7-.4.2-.8.4-1.2.5-.4.2-.9.3-1.5.6l-.1.5c0 .3.1.8.2 1.5s.2 1.5.4 2.4c.1.8.3 1.6.4 2.4.1.8.2 1.3.3 1.5v.5s0 .6.1.9c0 .3.1.6.1.9.1.3.1.4.1.5 0 .3 0 1 .1 2l.3 3.2c.1 1.2.2 2.2.3 3.2.1 1 .2 1.6.1 1.9 0 .1.1.3.1.6v1c0 .4 0 .8-.1 1.3 0 .4-.1.8-.1 1.2 0 .1 0 .2-.1.5-.1.2-.1.5-.2.7-.1.3-.2.5-.3.7-.1.2-.2.3-.2.3-.3.2-.9.2-1.7.3-.8 0-1.7.1-2.6.1h-2.6c-.8 0-1.4.1-1.8.2h-.1s-.3 0-.9-.2c-.5-.2-1.2-.4-1.9-.6-.8-.2-1.6-.5-2.4-.9-.9-.3-1.7-.6-2.4-.9-.8-.3-1.4-.5-1.9-.7-.5-.2-.8-.3-.9-.3-1.3-.6-2.3-1-3-1.3-.8-.3-1.4-.5-2-.7-.6-.2-1.2-.3-1.8-.3-.6-.1-1.4-.1-2.3-.2-.7 0-1.2-.1-1.7-.1s-.9.1-1.2.2c-.3.1-.7.3-1 .5-.3.2-.8.5-1.3.9l-.2-.1 1.1-.9zm37.2-50c0 .1 0 .1.1.1s.2 0 .2-.1-.1-.1-.2-.1-.1 0-.1.1z"/></g></svg>